<svg width="25" height="24" viewBox="0 0 25 24" fill="none" xmlns="http://www.w3.org/2000/svg">
<path d="M21.25 10.75H13.75V3.25C13.75 2.91848 13.6183 2.60054 13.3839 2.36612C13.1495 2.1317 12.8315 2 12.5 2C12.1685 2 11.8505 2.1317 11.6161 2.36612C11.3817 2.60054 11.25 2.91848 11.25 3.25V10.75H3.75C3.41848 10.75 3.10054 10.8817 2.86612 11.1161C2.6317 11.3505 2.5 11.6685 2.5 12C2.5 12.3315 2.6317 12.6495 2.86612 12.8839C3.10054 13.1183 3.41848 13.25 3.75 13.25H11.25V20.75C11.25 21.0815 11.3817 21.3995 11.6161 21.6339C11.8505 21.8683 12.1685 22 12.5 22C12.8315 22 13.1495 21.8683 13.3839 21.6339C13.6183 21.3995 13.75 21.0815 13.75 20.75V13.25H21.25C21.5815 13.25 21.8995 13.1183 22.1339 12.8839C22.3683 12.6495 22.5 12.3315 22.5 12C22.5 11.6685 22.3683 11.3505 22.1339 11.1161C21.8995 10.8817 21.5815 10.75 21.25 10.75Z" fill="#1A45DB"/>
</svg>
